HIERARCHY
ROOT root     
{
	OFFSET 0.0000 0.0000 0.0000
	CHANNELS 6 Xposition Yposition Zposition Zrotation Yrotation Xrotation
	JOINT pelvis   
	{
		OFFSET 0.0000 0.0000 0.0000
		CHANNELS 3 Zrotation Yrotation Xrotation
		JOINT thorax   
		{
			OFFSET 0.0000 23.0750 -5.0000
			CHANNELS 3 Zrotation Yrotation Xrotation
			JOINT rclavicle
			{
				OFFSET 0.0000 28.0009 0.0000
				CHANNELS 3 Zrotation Yrotation Xrotation
				JOINT rhumerus 
				{
					OFFSET -18.5725 5.5939 0.0000
					CHANNELS 3 Zrotation Yrotation Xrotation
					JOINT rradius  
					{
						OFFSET -24.8459 0.0000 0.0000
						CHANNELS 3 Zrotation Yrotation Xrotation
						JOINT rhand    
						{
							OFFSET -24.5477 0.0000 0.0000
							CHANNELS 3 Zrotation Yrotation Xrotation
							End Site
							{
								OFFSET -8.1826 0.0000 0.0000
							}
						}
					}
				}
			}
			JOINT lclavicle
			{
				OFFSET 0.0000 28.0009 0.0000
				CHANNELS 3 Zrotation Yrotation Xrotation
				JOINT lhumerus 
				{
					OFFSET 18.5725 5.5939 0.0000
					CHANNELS 3 Zrotation Yrotation Xrotation
					JOINT lradius  
					{
						OFFSET 24.8459 0.0000 0.0000
						CHANNELS 3 Zrotation Yrotation Xrotation
						JOINT lhand    
						{
							OFFSET 24.5477 0.0000 0.0000
							CHANNELS 3 Zrotation Yrotation Xrotation
							End Site
							{
								OFFSET 8.1826 0.0000 0.0000
							}
						}
					}
				}
			}
			JOINT head     
			{
				OFFSET 0.0000 35.2030 0.0000
				CHANNELS 3 Zrotation Yrotation Xrotation
				End Site
				{
					OFFSET 0.0000 11.7343 0.0000
				}
			}
		}
		JOINT rfemur   
		{
			OFFSET -8.2817 0.0000 0.0000
			CHANNELS 3 Zrotation Yrotation Xrotation
			JOINT rtibia   
			{
				OFFSET 0.0000 -43.3627 0.0000
				CHANNELS 3 Zrotation Yrotation Xrotation
				JOINT rfoot    
				{
					OFFSET 0.0000 -38.2947 0.0000
					CHANNELS 3 Zrotation Yrotation Xrotation
					JOINT rtoes    
					{
						OFFSET 0.0000 0.0000 16.6054
						CHANNELS 3 Zrotation Yrotation Xrotation
						End Site
						{
							OFFSET 0.0000 0.0000 5.5351
						}
					}
				}
			}
		}
		JOINT lfemur   
		{
			OFFSET 8.2817 0.0000 0.0000
			CHANNELS 3 Zrotation Yrotation Xrotation
			JOINT ltibia   
			{
				OFFSET 0.0000 -43.3627 0.0000
				CHANNELS 3 Zrotation Yrotation Xrotation
				JOINT lfoot    
				{
					OFFSET 0.0000 -38.2947 0.0000
					CHANNELS 3 Zrotation Yrotation Xrotation
					JOINT ltoes    
					{
						OFFSET 0.0000 0.0000 16.6054
						CHANNELS 3 Zrotation Yrotation Xrotation
						End Site
						{
							OFFSET 0.0000 0.0000 5.5351
						}
					}
				}
			}
		}
	}
}
MOTION
Frames: 7
Frame Time: .0333333
51.095 83.656 6.1715 3.51614 84.6553 19.7577 0 -0 0 6.98499 -13.3687 -9.3311 26.009 -9.46525 -1.37573e-05 48.5383 3.49418 -22.8875 -0 73.9714 -0 -2.73151 -0.0647008 0.00150001 -25.3112 11.3908 -7.01253e-05 -39.9633 -10.1652 9.70409 -180 -84.1803 180 4.79341 -3.84934 -0.161203 -2.80209 18.0405 -2.24626 0.0774083 -2.07405 -39.2298 -0 -0 31.1053 1.26062e-08 -0.0308996 6.6233 -0.00359998 5.17977e-08 -47.2925 1.80507 5.45589 5.98227 -0 -0 20.9911 7.31857e-06 1.56145 15.1428 0.407999 3.46869e-07 -81.7297 
52.329 83.517 6.4472 2.19697 84.7104 18.3066 0 -0 0 7.53929 -13.5039 -9.33452 26.0632 -9.34358 5.2336e-05 48.6496 4.1603 -23.2524 -8.94144e-07 73.4172 -1.19919e-06 -3.69565 0.0801995 -0.00259993 -25.4244 11.4726 8.4423e-05 -39.9783 -9.42101 9.24868 -180 -84.5359 180 4.62894 -3.77808 -0.152801 -4.29008 17.4433 -2.70675 0.187713 -1.85231 -38.981 -0 -0 32.8012 -3.82665e-08 -0.112301 5.61698 -0.011 -4.50242e-08 -44.3244 2.15949 5.32192 5.8579 -0 -0 22.7488 2.66483e-07 1.24779 16.1346 0.346794 2.48331e-06 -81.395 
53.535 83.416 6.734 0.242842 84.8086 16.2393 0 -0 0 8.14038 -13.632 -9.32683 26.1292 -9.19207 8.75042e-05 48.8077 4.86034 -23.5769 -0 72.8824 -0 -4.69248 0.289104 -0.0118001 -25.5158 11.5496 1.85208e-05 -40.0304 -8.6977 8.812 180 -85.0794 180 4.47669 -3.66121 -0.1432 -5.73002 16.7871 -3.16821 0.363708 -1.60724 -38.5964 -0 -0 34.1984 7.34852e-07 -0.308396 4.46868 -0.0240002 -2.12792e-07 -42.0205 2.59354 5.25357 5.52093 -0 -0 24.7767 -7.0961e-06 0.9548 17.1721 0.281899 -2.55539e-07 -80.159 
54.712 83.354 7.0288 -2.27576 84.9334 13.6378 0 -0 0 8.77012 -13.7423 -9.32029 26.2032 -9.0159 6.95374e-05 49.0189 5.57035 -23.8602 -1.13863e-06 72.3872 -8.33169e-07 -5.69289 0.546394 -0.0272004 -25.5895 11.6179 -2.30984e-05 -40.0974 -8.01343 8.40514 -180 -85.8351 180 4.33601 -3.5034 -0.1327 -7.10647 16.0668 -3.61734 0.598005 -1.34874 -38.0889 -0 -0 35.2584 -5.09327e-07 -0.598799 3.25114 -0.0340004 -4.0884e-07 -40.4906 3.0896 5.25302 4.96929 -0 -0 27.0394 -5.59356e-06 0.743895 18.2168 0.232602 -6.37244e-07 -78.0062 
55.858 83.332 7.327 -5.22188 85.0814 10.644 0 -0 0 9.40349 -13.8256 -9.3236 26.2835 -8.82167 2.17787e-05 49.286 6.26796 -24.0986 -1.11459e-06 71.9423 -8.08947e-07 -6.66657 0.834101 -0.0486007 -25.6458 11.6727 -4.25458e-05 -40.1557 -7.38417 8.03937 -180 -86.7947 180 4.20519 -3.31199 -0.121599 -8.40452 15.279 -4.04089 0.876109 -1.09081 -37.4726 -0 -0 35.9718 4.02819e-07 -0.9587 2.03325 -0.0340001 -7.60086e-08 -39.7176 3.62133 5.31549 4.21431 -0 -0 29.4891 -6.37163e-07 0.681503 19.2223 0.224396 2.0269e-06 -75.008 
56.977 83.347 7.6228 -8.3781 85.2569 7.47038 0 -0 0 10.0049 -13.8744 -9.34123 26.3686 -8.61779 2.59163e-05 49.6119 6.93327 -24.2868 -0 71.5637 -0 -7.58395 1.13329 -0.0751004 -25.6857 11.7092 8.03217e-05 -40.183 -6.82289 7.72365 -180 -87.9598 180 4.08229 -3.0957 -0.1104 -9.61243 14.4255 -4.42834 1.17423 -0.853041 -36.7613 -0 -0 36.3517 -3.64264e-07 -1.35844 0.877006 -0.0208001 -2.32529e-08 -39.586 4.15069 5.42865 3.2762 -0 -0 32.0662 -2.5507e-06 0.832709 20.1414 0.286699 4.88848e-07 -71.3276 
58.071 83.397 7.9138 -11.6701 85.4437 4.19161 0 -0 0 10.5573 -13.8817 -9.37167 26.4537 -8.41034 3.99988e-06 49.9929 7.54925 -24.4136 -0 71.26 -0 -8.41759 1.42526 -0.104895 -25.7155 11.7243 -4.68291e-05 -40.165 -6.34043 7.46477 -180 -89.3235 180 3.9649 -2.86395 -0.0991981 -10.7275 13.5107 -4.77476 1.47921 -0.641394 -35.9624 -0 -0 36.4224 -2.52726e-08 -1.78117 -0.159599 0.00500003 1.71887e-10 -39.9127 4.65966 5.58742 2.18133 -0 -0 34.7122 -5.47527e-07 1.23571 20.9305 0.441505 1.42231e-06 -67.2279 
